<?xml version="1.0" encoding="UTF-8" standalone="no"?>
<!-- Generator: Adobe Illustrator 16.0.3, SVG Export Plug-In . SVG Version: 6.00 Build 0)  -->

<svg
   version="1.1"
   x="0px"
   y="0px"
   width="283.47198"
   height="48.569"
   viewBox="0 0 283.47197 48.569"
   enable-background="new 0 0 333.528 110"
   xml:space="preserve"
   id="svg11"
   sodipodi:docname="fakultaet3.svg"
   inkscape:version="1.3.2 (091e20e, 2023-11-25, custom)"
   xmlns:inkscape="http://www.inkscape.org/namespaces/inkscape"
   xmlns:sodipodi="http://sodipodi.sourceforge.net/DTD/sodipodi-0.dtd"
   xmlns:xlink="http://www.w3.org/1999/xlink"
   xmlns="http://www.w3.org/2000/svg"
   xmlns:svg="http://www.w3.org/2000/svg"><defs
   id="defs11" /><sodipodi:namedview
   id="namedview11"
   pagecolor="#ffffff"
   bordercolor="#000000"
   borderopacity="0.25"
   inkscape:showpageshadow="2"
   inkscape:pageopacity="0.0"
   inkscape:pagecheckerboard="0"
   inkscape:deskcolor="#d1d1d1"
   inkscape:zoom="2.9772611"
   inkscape:cx="141.57307"
   inkscape:cy="15.282502"
   inkscape:window-width="1920"
   inkscape:window-height="1009"
   inkscape:window-x="2872"
   inkscape:window-y="-8"
   inkscape:window-maximized="1"
   inkscape:current-layer="svg11" />
<g
   id="Hintergrund"
   transform="translate(-25.116,-39.689)">
	
</g>
<g
   id="Logo"
   transform="translate(-25.116,-39.689)">
	<g
   id="g2">
		<defs
   id="defs1">
			<rect
   id="SVGID_1_"
   x="10.616"
   y="16.780001"
   width="312.47"
   height="92.794998" />
		</defs>
		<clipPath
   id="SVGID_2_">
			<use
   xlink:href="#SVGID_1_"
   overflow="visible"
   id="use1" />
		</clipPath>
		<path
   clip-path="url(#SVGID_2_)"
   fill="#8ebae5"
   d="m 246.549,86.192 h 4.445 v -9.323 h 2.376 c 1.791,0 2.563,1.051 2.625,2.779 l 0.123,4.229 c 0.031,0.862 0.124,1.696 0.556,2.314 h 4.815 v -0.185 c -0.833,-0.434 -0.957,-1.637 -0.987,-3.951 -0.062,-4.662 -0.524,-6.329 -3.55,-6.73 v -0.062 c 2.5,-0.524 3.674,-2.5 3.674,-5.434 0,-3.767 -2.223,-5.681 -5.866,-5.681 h -8.211 z m 4.445,-18.768 h 2.099 c 2.006,0 3.088,1.019 3.088,3.057 0,2.376 -1.204,3.302 -3.335,3.302 h -1.852 z"
   id="path1" />
		<path
   clip-path="url(#SVGID_2_)"
   fill="#8ebae5"
   d="m 181.012,64.151 v 15.373 c 0,5.896 3.427,7.1 7.038,7.1 3.611,0 7.039,-1.48 7.039,-7.1 V 64.151 h -4.444 v 15.373 c 0,2.192 -0.525,3.828 -2.595,3.828 -2.067,0 -2.593,-1.636 -2.593,-3.828 V 64.151 Z"
   id="path2" />
	</g>
	<polygon
   fill="#8ebae5"
   points="210.809,86.192 210.809,64.151 206.734,64.151 206.734,79.246 206.673,79.246 201.301,64.151 196.177,64.151 196.177,86.192 200.252,86.192 200.252,70.759 200.313,70.759 205.746,86.192 "
   id="polygon2" />
	<rect
   x="211.952"
   y="64.151001"
   fill="#8ebae5"
   width="4.4450002"
   height="22.041"
   id="rect2" />
	<polygon
   fill="#8ebae5"
   points="224.574,80.451 221.456,64.151 216.702,64.151 221.764,86.192 227.475,86.192 232.537,64.151 227.938,64.151 224.666,80.451 "
   id="polygon3" />
	<polygon
   fill="#8ebae5"
   points="244.788,76.622 244.788,72.98 237.379,72.98 237.379,67.794 245.25,67.794 245.25,64.151 232.934,64.151 232.934,86.192 245.56,86.192 245.56,82.551 237.379,82.551 237.379,76.622 "
   id="polygon4" />
	<g
   id="g4">
		<defs
   id="defs4">
			<rect
   id="SVGID_3_"
   x="10.616"
   y="16.780001"
   width="312.47"
   height="92.794998" />
		</defs>
		<clipPath
   id="SVGID_4_">
			<use
   xlink:href="#SVGID_3_"
   overflow="visible"
   id="use4" />
		</clipPath>
		<path
   clip-path="url(#SVGID_4_)"
   fill="#8ebae5"
   d="m 260.994,79.309 v 0.895 c 0,4.076 1.976,6.423 7.008,6.423 4.815,0 7.655,-2.101 7.655,-6.763 0,-2.685 -0.865,-4.382 -4.199,-5.834 l -3.426,-1.48 c -1.883,-0.804 -2.284,-1.637 -2.284,-2.994 0,-1.296 0.525,-2.563 2.531,-2.563 1.697,0 2.408,1.204 2.408,3.273 h 4.26 v -0.618 c 0,-4.229 -2.872,-5.927 -6.823,-5.927 -4.198,0 -6.82,2.191 -6.82,6.481 0,3.675 1.82,5.312 5.771,6.668 2.933,1.02 3.952,1.761 3.952,3.768 0,1.852 -1.298,2.716 -2.655,2.716 -2.347,0 -2.933,-1.327 -2.933,-3.396 V 79.31 h -4.445 z"
   id="path4" />
	</g>
	<rect
   x="276.23801"
   y="64.151001"
   fill="#8ebae5"
   width="4.4439998"
   height="22.041"
   id="rect4" />
	<polygon
   fill="#8ebae5"
   points="286.081,67.794 286.081,86.192 290.527,86.192 290.527,67.794 294.276,67.794 298.431,77.519 298.431,86.192 302.877,86.192 302.877,77.519 308.588,64.151 303.772,64.151 300.685,72.672 300.623,72.672 297.722,64.151 281.266,64.151 281.266,67.794 "
   id="polygon5" />
	<g
   id="g6">
		<defs
   id="defs5">
			<rect
   id="SVGID_5_"
   x="10.616"
   y="16.780001"
   width="312.47"
   height="92.794998" />
		</defs>
		<clipPath
   id="SVGID_6_">
			<use
   xlink:href="#SVGID_5_"
   overflow="visible"
   id="use5" />
		</clipPath>
		<path
   clip-path="url(#SVGID_6_)"
   fill="#00549f"
   d="m 141.963,62.146 h -0.282 -7.084 v -2.495 -19.48 -0.163 h 7.069 0.015 4.995 c 3.276,-0.001 6.1,2.12 7.022,4.931 0.853,2.605 0.124,5.434 -1.802,7.449 0.256,0.693 0.506,1.236 0.743,1.859 0.535,1.233 1.024,2.466 1.559,3.683 l 1.753,4.217 h -0.045 -7.424 c 0,0.004 -0.06,-0.178 -0.119,-0.253 -0.297,-0.651 -0.565,-1.351 -0.861,-2.004 l -1.797,-4.262 c -0.713,-1.722 -1.426,-3.35 -2.138,-5.072 0.889,-0.024 1.554,0.143 2.412,-0.252 0.604,-0.297 1.518,-1.035 1.542,-2.449 -0.024,-0.701 -0.218,-1.232 -0.681,-1.785 -0.466,-0.513 -1.139,-0.894 -2.016,-0.906 0,0 -2.862,-0.001 -2.861,0 z"
   id="path5" />
		<path
   clip-path="url(#SVGID_6_)"
   fill="#00549f"
   d="m 218.898,40.008 v 22.139 h -5.751 -1.615 V 53.12 h -0.687 -4.409 -0.062 v 9.027 c -1.336,0 -2.775,-0.015 -4.111,0 H 199.01 V 45.13 h -5.152 v 0.534 1.603 7.291 7.588 h -0.06 -7.307 V 52.97 52.614 45.13 h -5.196 v 8.033 8.983 h -7.587 c -1.321,-3.191 -2.717,-6.414 -4.009,-9.592 -0.148,-0.668 -0.297,-1.337 -0.49,-1.99 v 11.582 h -7.603 c -1.507,-3.504 -2.955,-6.938 -4.457,-10.494 -0.521,-1.232 -0.948,-2.234 -1.486,-3.515 l -0.074,-0.168 -1.17,-2.747 -1.676,-3.923 c -0.147,-0.445 -0.384,-0.847 -0.534,-1.292 h 7.586 c 1.559,3.786 3.132,7.528 4.766,11.255 l 0.045,0.089 c -0.059,-0.431 -0.194,-0.98 -0.268,-1.395 v -6.608 c 0.014,-1.055 0,-2.258 0,-3.341 h 7.602 c 0.096,0.241 0.148,0.371 0.223,0.565 0.892,2.093 1.738,4.172 2.629,6.25 l 1.99,4.529 c -0.045,-0.476 -0.148,-0.935 -0.209,-1.395 v -9.949 h 0.609 5.168 18.709 5.314 v 1.381 6.608 h 0.357 4.8 v -7.989 h 3.842 3.526 z"
   id="path6" />
	</g>
	<path
   fill="#8ebae5"
   d="m 240.264,53.805 2.14,-9.954 h 0.062 l 2.141,9.954 z m -14.76,0 2.14,-9.954 h 0.062 l 2.141,9.954 z m 19.69,-13.8 h -5.521 l -4.619,17.452 -4.62,-17.452 h -5.521 l -5.86,22.141 h 4.651 l 1.023,-4.682 h 5.893 l 1.022,4.682 h 6.821 l 1.023,-4.682 h 5.892 l 1.023,4.682 h 4.652 z"
   id="path7" />
	<g
   id="g8">
		<defs
   id="defs7">
			<rect
   id="SVGID_7_"
   x="10.616"
   y="16.780001"
   width="312.47"
   height="92.794998" />
		</defs>
		<clipPath
   id="SVGID_8_">
			<use
   xlink:href="#SVGID_7_"
   overflow="visible"
   id="use7" />
		</clipPath>
		<path
   clip-path="url(#SVGID_8_)"
   fill="#8ebae5"
   d="m 264.354,47.561 c 0,-3.21 -0.462,-7.872 -6.822,-7.872 -6.667,0 -7.502,4.754 -7.502,11.453 0,6.698 0.835,11.452 7.502,11.452 5.834,0 7.008,-4.105 7.008,-8.859 h -4.445 c 0,4.754 -1.173,5.587 -2.778,5.587 -1.914,0 -2.84,-1.204 -2.84,-7.872 0,-6.235 0.525,-8.488 2.778,-8.488 2.006,0 2.654,1.389 2.654,4.599 z"
   id="path8" />
	</g>
	<polygon
   fill="#8ebae5"
   points="279.556,40.008 275.09,40.008 275.09,48.474 269.881,48.474 269.881,40.008 265.417,40.008 265.417,62.146 269.881,62.146 269.881,52.318 275.09,52.318 275.09,62.146 279.556,62.146 "
   id="polygon8" />
	<polygon
   fill="#8ebae5"
   points="292.434,52.533 292.434,48.873 284.99,48.873 284.99,43.663 292.897,43.663 292.897,40.004 280.523,40.004 280.523,62.146 293.209,62.146 293.209,58.487 284.99,58.487 284.99,52.533 "
   id="polygon9" />
	<polygon
   fill="#8ebae5"
   points="308.568,62.146 308.568,40.008 304.476,40.008 304.476,55.17 304.414,55.17 299.019,40.008 293.872,40.008 293.872,62.146 297.965,62.146 297.965,46.643 298.025,46.643 303.483,62.146 "
   id="polygon10" />
	<rect
   x="119.587"
   y="39.978001"
   fill="#00549f"
   width="1.023"
   height="46.397999"
   id="rect10" />
	<g
   id="g11">
		<defs
   id="defs10">
			<rect
   id="SVGID_9_"
   x="10.616"
   y="16.780001"
   width="312.47"
   height="92.794998" />
		</defs>
		<clipPath
   id="SVGID_10_">
			<use
   xlink:href="#SVGID_9_"
   overflow="visible"
   id="use10" />
		</clipPath>
		<path
   clip-path="url(#SVGID_10_)"
   fill="#00549f"
   d="m 101.424,86.376 h 1.411 v -3.652 c 0,-0.606 0.25,-0.91 0.747,-0.91 0.212,0 0.366,0.057 0.461,0.169 0.096,0.112 0.143,0.312 0.143,0.599 v 3.795 h 1.412 v -4.082 c 0,-0.552 -0.121,-0.951 -0.364,-1.197 -0.241,-0.244 -0.588,-0.367 -1.038,-0.367 -0.307,0 -0.579,0.063 -0.818,0.188 -0.239,0.126 -0.433,0.325 -0.583,0.6 h -0.021 v -0.646 h -1.35 z M 97.811,83 v -0.215 c 0,-0.13 0.013,-0.259 0.036,-0.389 0.025,-0.131 0.064,-0.247 0.118,-0.354 0.055,-0.104 0.128,-0.19 0.22,-0.255 0.092,-0.065 0.21,-0.098 0.353,-0.098 0.143,0 0.261,0.028 0.353,0.087 0.092,0.059 0.163,0.144 0.215,0.256 0.051,0.113 0.087,0.249 0.107,0.409 0.02,0.161 0.035,0.346 0.041,0.558 h -1.443 z m 2.793,0.839 v -0.316 c 0,-0.424 -0.026,-0.807 -0.082,-1.151 -0.054,-0.345 -0.156,-0.638 -0.306,-0.88 -0.15,-0.242 -0.356,-0.43 -0.619,-0.563 -0.262,-0.133 -0.599,-0.198 -1.008,-0.198 -0.477,0 -0.859,0.078 -1.146,0.234 -0.286,0.157 -0.506,0.368 -0.66,0.634 -0.153,0.267 -0.255,0.57 -0.307,0.911 -0.051,0.342 -0.076,0.696 -0.076,1.064 0,0.34 0.015,0.687 0.046,1.038 0.03,0.351 0.114,0.668 0.25,0.952 0.137,0.282 0.348,0.513 0.635,0.689 0.286,0.177 0.685,0.267 1.197,0.267 0.675,0 1.17,-0.173 1.483,-0.518 0.314,-0.344 0.485,-0.836 0.511,-1.478 h -1.268 c -0.041,0.348 -0.116,0.606 -0.225,0.777 -0.109,0.171 -0.282,0.255 -0.522,0.255 -0.129,0 -0.238,-0.034 -0.327,-0.106 -0.088,-0.072 -0.16,-0.167 -0.215,-0.286 -0.054,-0.12 -0.093,-0.256 -0.118,-0.41 -0.023,-0.152 -0.036,-0.312 -0.036,-0.475 v -0.44 z m -8.872,0.736 v 0.195 c 0,0.266 0.031,0.506 0.092,0.721 0.061,0.215 0.169,0.398 0.322,0.552 0.154,0.154 0.36,0.271 0.619,0.354 0.26,0.082 0.59,0.123 0.992,0.123 0.294,0 0.567,-0.036 0.819,-0.107 0.252,-0.072 0.469,-0.179 0.649,-0.323 0.181,-0.143 0.323,-0.324 0.425,-0.542 0.102,-0.218 0.153,-0.47 0.153,-0.757 0,-0.416 -0.092,-0.745 -0.276,-0.987 -0.184,-0.241 -0.497,-0.438 -0.941,-0.588 l -0.849,-0.287 c -0.238,-0.073 -0.4,-0.166 -0.486,-0.275 -0.085,-0.109 -0.128,-0.232 -0.128,-0.368 0,-0.198 0.067,-0.346 0.2,-0.445 0.133,-0.099 0.288,-0.148 0.465,-0.148 0.232,0 0.394,0.066 0.486,0.199 0.092,0.134 0.138,0.344 0.138,0.63 h 1.269 v -0.226 c 0,-0.498 -0.154,-0.883 -0.461,-1.156 -0.307,-0.272 -0.78,-0.408 -1.422,-0.408 -0.361,0 -0.67,0.044 -0.926,0.133 -0.255,0.089 -0.465,0.208 -0.629,0.357 -0.163,0.15 -0.282,0.325 -0.358,0.527 -0.074,0.201 -0.112,0.414 -0.112,0.639 0,0.39 0.099,0.708 0.296,0.957 0.199,0.248 0.491,0.442 0.88,0.578 l 0.992,0.358 c 0.138,0.054 0.256,0.128 0.359,0.22 0.102,0.092 0.153,0.228 0.153,0.404 0,0.218 -0.064,0.381 -0.194,0.491 -0.129,0.108 -0.303,0.162 -0.522,0.162 -0.238,0 -0.421,-0.072 -0.547,-0.22 C 93.064,85.191 93,84.998 93,84.76 V 84.575 Z M 88.349,83 v -0.215 c 0,-0.13 0.012,-0.259 0.037,-0.389 0.023,-0.131 0.062,-0.247 0.116,-0.354 0.055,-0.104 0.128,-0.19 0.221,-0.255 0.092,-0.065 0.209,-0.098 0.352,-0.098 0.144,0 0.261,0.028 0.353,0.087 0.093,0.059 0.164,0.144 0.215,0.256 0.052,0.113 0.088,0.249 0.107,0.409 0.021,0.161 0.035,0.346 0.042,0.558 h -1.443 z m 2.793,0.839 v -0.316 c 0,-0.424 -0.027,-0.807 -0.082,-1.151 -0.055,-0.345 -0.157,-0.638 -0.306,-0.88 -0.151,-0.242 -0.357,-0.43 -0.62,-0.563 -0.262,-0.133 -0.598,-0.198 -1.008,-0.198 -0.477,0 -0.859,0.078 -1.146,0.234 -0.286,0.157 -0.505,0.368 -0.659,0.634 -0.154,0.267 -0.256,0.57 -0.307,0.911 -0.05,0.342 -0.077,0.696 -0.077,1.064 0,0.34 0.015,0.687 0.046,1.038 0.031,0.351 0.115,0.668 0.252,0.952 0.136,0.282 0.346,0.513 0.633,0.689 0.286,0.177 0.685,0.267 1.197,0.267 0.675,0 1.17,-0.173 1.483,-0.518 0.314,-0.344 0.485,-0.836 0.512,-1.478 h -1.268 c -0.042,0.348 -0.116,0.606 -0.225,0.777 -0.109,0.171 -0.283,0.255 -0.523,0.255 -0.129,0 -0.238,-0.034 -0.327,-0.106 -0.088,-0.072 -0.16,-0.167 -0.215,-0.286 -0.054,-0.12 -0.093,-0.256 -0.116,-0.41 -0.025,-0.152 -0.037,-0.312 -0.037,-0.475 v -0.44 z m -10.413,2.537 h 1.637 l 0.686,-3.908 h 0.02 l 0.726,3.908 h 1.607 l 1.186,-5.504 h -1.35 l -0.665,3.908 h -0.021 l -0.726,-3.908 h -1.534 l -0.686,3.908 h -0.02 l -0.645,-3.908 h -1.412 z m -4.505,0 h 1.412 v -3.304 c 0,-0.186 0.031,-0.34 0.092,-0.466 0.061,-0.126 0.143,-0.229 0.245,-0.308 0.103,-0.079 0.215,-0.135 0.338,-0.169 0.123,-0.033 0.246,-0.051 0.368,-0.051 0.075,0 0.149,0.002 0.22,0.005 0.072,0.003 0.144,0.009 0.22,0.017 v -1.352 c -0.041,-0.007 -0.084,-0.012 -0.128,-0.015 -0.045,-0.003 -0.087,-0.005 -0.128,-0.005 -0.293,0 -0.542,0.08 -0.746,0.239 -0.205,0.161 -0.379,0.374 -0.522,0.641 h -0.021 v -0.737 h -1.35 z m -2.353,0 h 1.351 V 80.872 H 73.81 v 3.652 c 0,0.606 -0.25,0.911 -0.747,0.911 -0.212,0 -0.365,-0.058 -0.46,-0.17 -0.097,-0.112 -0.144,-0.312 -0.144,-0.599 v -3.795 h -1.411 v 4.082 c 0,0.552 0.12,0.951 0.363,1.197 0.241,0.245 0.588,0.368 1.038,0.368 0.307,0 0.579,-0.063 0.819,-0.189 0.238,-0.126 0.432,-0.326 0.583,-0.599 h 0.02 z M 67.446,83 v -0.215 c 0,-0.13 0.011,-0.259 0.036,-0.389 0.023,-0.131 0.062,-0.247 0.117,-0.354 0.054,-0.104 0.128,-0.19 0.22,-0.255 0.092,-0.065 0.21,-0.098 0.353,-0.098 0.143,0 0.261,0.028 0.353,0.087 0.092,0.059 0.164,0.144 0.215,0.256 0.051,0.113 0.087,0.249 0.107,0.409 0.021,0.161 0.034,0.346 0.041,0.558 h -1.442 z m 2.793,0.839 v -0.316 c 0,-0.424 -0.028,-0.807 -0.082,-1.151 -0.056,-0.345 -0.158,-0.638 -0.307,-0.88 -0.151,-0.242 -0.357,-0.43 -0.619,-0.563 -0.263,-0.133 -0.599,-0.198 -1.008,-0.198 -0.478,0 -0.859,0.078 -1.146,0.234 -0.286,0.157 -0.506,0.368 -0.659,0.634 -0.154,0.267 -0.256,0.57 -0.307,0.911 -0.051,0.342 -0.077,0.696 -0.077,1.064 0,0.34 0.015,0.687 0.046,1.038 0.031,0.351 0.114,0.668 0.251,0.952 0.136,0.282 0.347,0.513 0.634,0.689 0.286,0.177 0.685,0.267 1.197,0.267 0.675,0 1.169,-0.173 1.483,-0.518 0.313,-0.344 0.484,-0.836 0.512,-1.478 h -1.269 c -0.041,0.348 -0.116,0.606 -0.225,0.777 -0.109,0.171 -0.283,0.255 -0.522,0.255 -0.13,0 -0.239,-0.034 -0.327,-0.106 -0.089,-0.072 -0.161,-0.167 -0.215,-0.286 -0.055,-0.12 -0.094,-0.256 -0.117,-0.41 -0.025,-0.152 -0.036,-0.312 -0.036,-0.475 v -0.44 z m -6.485,2.537 h 1.412 v -5.504 h -1.412 z m 0,-6.179 h 1.412 V 78.99 h -1.412 z m -5.197,6.179 h 1.412 v -3.652 c 0,-0.606 0.248,-0.91 0.746,-0.91 0.211,0 0.365,0.057 0.461,0.169 0.095,0.112 0.143,0.312 0.143,0.599 v 3.795 h 1.412 v -4.082 c 0,-0.552 -0.122,-0.951 -0.364,-1.197 -0.242,-0.244 -0.588,-0.367 -1.038,-0.367 -0.307,0 -0.58,0.063 -0.818,0.188 -0.24,0.126 -0.434,0.325 -0.583,0.6 h -0.021 v -0.646 h -1.35 z M 54.943,83 v -0.215 c 0,-0.13 0.011,-0.259 0.035,-0.389 0.024,-0.131 0.063,-0.247 0.118,-0.354 0.054,-0.104 0.128,-0.19 0.22,-0.255 0.092,-0.065 0.21,-0.098 0.353,-0.098 0.143,0 0.261,0.028 0.353,0.087 0.092,0.059 0.164,0.144 0.215,0.256 0.051,0.113 0.087,0.249 0.107,0.409 0.021,0.161 0.034,0.346 0.041,0.558 h -1.442 z m 2.792,0.839 v -0.316 c 0,-0.424 -0.027,-0.807 -0.081,-1.151 -0.056,-0.345 -0.158,-0.638 -0.307,-0.88 -0.151,-0.242 -0.357,-0.43 -0.619,-0.563 -0.263,-0.133 -0.599,-0.198 -1.008,-0.198 -0.478,0 -0.859,0.078 -1.146,0.234 -0.286,0.157 -0.506,0.368 -0.66,0.634 -0.153,0.267 -0.255,0.57 -0.306,0.911 -0.052,0.342 -0.077,0.696 -0.077,1.064 0,0.34 0.015,0.687 0.046,1.038 0.031,0.351 0.113,0.668 0.25,0.952 0.137,0.282 0.348,0.513 0.635,0.689 0.286,0.177 0.685,0.267 1.197,0.267 0.675,0 1.169,-0.173 1.483,-0.518 0.313,-0.344 0.484,-0.836 0.512,-1.478 h -1.269 c -0.041,0.348 -0.117,0.606 -0.225,0.777 -0.11,0.171 -0.283,0.255 -0.522,0.255 -0.13,0 -0.239,-0.034 -0.327,-0.106 -0.089,-0.072 -0.161,-0.167 -0.215,-0.286 -0.055,-0.12 -0.094,-0.256 -0.118,-0.41 -0.024,-0.152 -0.035,-0.312 -0.035,-0.475 v -0.44 z m -6.417,-2.967 v 0.614 h -0.02 c -0.137,-0.287 -0.311,-0.484 -0.522,-0.593 -0.212,-0.11 -0.416,-0.164 -0.614,-0.164 -0.383,0 -0.687,0.085 -0.916,0.256 -0.229,0.17 -0.403,0.39 -0.521,0.659 -0.12,0.27 -0.199,0.57 -0.236,0.905 -0.037,0.334 -0.056,0.662 -0.056,0.982 0,1.002 0.141,1.716 0.425,2.143 0.282,0.428 0.704,0.64 1.263,0.64 0.225,0 0.441,-0.062 0.65,-0.185 0.207,-0.122 0.383,-0.286 0.527,-0.491 h 0.02 v 0.728 c 0,0.286 -0.058,0.522 -0.174,0.711 -0.116,0.187 -0.317,0.281 -0.603,0.281 -0.089,0 -0.173,-0.014 -0.251,-0.041 -0.079,-0.028 -0.152,-0.064 -0.22,-0.113 -0.143,-0.102 -0.215,-0.242 -0.215,-0.419 h -1.35 c 0,0.471 0.161,0.834 0.486,1.09 0.323,0.255 0.785,0.383 1.386,0.383 0.824,0 1.413,-0.176 1.765,-0.526 0.35,-0.352 0.526,-0.896 0.526,-1.631 v -5.229 z m -1.446,1.99 c 0.016,-0.256 0.052,-0.461 0.107,-0.614 0.054,-0.153 0.129,-0.264 0.225,-0.332 0.095,-0.069 0.221,-0.103 0.378,-0.103 0.28,0 0.472,0.14 0.578,0.42 0.106,0.278 0.159,0.754 0.159,1.422 0,0.231 -0.012,0.445 -0.036,0.639 -0.024,0.194 -0.065,0.36 -0.123,0.496 -0.058,0.136 -0.137,0.244 -0.235,0.322 -0.099,0.079 -0.224,0.118 -0.373,0.118 -0.151,0 -0.271,-0.039 -0.363,-0.118 -0.092,-0.078 -0.164,-0.185 -0.215,-0.317 -0.051,-0.133 -0.086,-0.284 -0.102,-0.455 -0.018,-0.171 -0.026,-0.351 -0.026,-0.542 -10e-4,-0.368 0.008,-0.68 0.026,-0.936 m -6.485,3.514 h 1.411 v -3.652 c 0,-0.606 0.249,-0.91 0.747,-0.91 0.211,0 0.364,0.057 0.461,0.169 0.095,0.112 0.143,0.312 0.143,0.599 v 3.795 h 1.412 v -4.082 c 0,-0.552 -0.122,-0.951 -0.364,-1.197 -0.242,-0.244 -0.588,-0.367 -1.038,-0.367 -0.307,0 -0.58,0.063 -0.818,0.188 -0.24,0.126 -0.434,0.325 -0.583,0.6 h -0.021 v -0.646 h -1.35 z m -2.44,0 h 1.412 v -5.504 h -1.412 z m 0,-6.179 h 1.412 V 78.99 h -1.412 z m -2.379,6.179 h 1.351 v -5.504 h -1.412 v 3.652 c 0,0.606 -0.25,0.911 -0.747,0.911 -0.212,0 -0.365,-0.058 -0.46,-0.17 -0.096,-0.112 -0.143,-0.312 -0.143,-0.599 v -3.795 h -1.412 v 4.082 c 0,0.552 0.121,0.951 0.363,1.197 0.241,0.245 0.588,0.368 1.038,0.368 0.307,0 0.579,-0.063 0.819,-0.189 0.238,-0.126 0.433,-0.326 0.583,-0.599 h 0.02 z m -5.189,-1.668 c 0,0.157 -0.028,0.289 -0.082,0.395 -0.054,0.106 -0.125,0.192 -0.21,0.261 -0.085,0.069 -0.179,0.118 -0.281,0.147 -0.103,0.031 -0.202,0.046 -0.297,0.046 -0.191,0 -0.327,-0.073 -0.409,-0.225 -0.082,-0.15 -0.123,-0.33 -0.123,-0.542 0,-0.245 0.062,-0.439 0.184,-0.583 0.123,-0.143 0.328,-0.245 0.614,-0.307 0.089,-0.021 0.187,-0.054 0.297,-0.098 0.109,-0.044 0.212,-0.104 0.307,-0.179 z m -1.31,-2.147 v -0.153 c 0,-0.218 0.054,-0.393 0.164,-0.522 0.109,-0.13 0.273,-0.194 0.491,-0.194 0.238,0 0.407,0.06 0.506,0.18 0.1,0.119 0.149,0.284 0.149,0.496 0,0.184 -0.041,0.324 -0.123,0.419 -0.082,0.095 -0.228,0.171 -0.44,0.225 l -0.798,0.216 c -0.245,0.068 -0.455,0.146 -0.629,0.234 -0.174,0.089 -0.317,0.2 -0.43,0.333 -0.112,0.133 -0.196,0.293 -0.25,0.481 -0.055,0.187 -0.082,0.411 -0.082,0.67 0,0.184 0.023,0.37 0.071,0.557 0.048,0.188 0.123,0.356 0.225,0.507 0.103,0.15 0.239,0.273 0.41,0.368 0.171,0.095 0.378,0.144 0.624,0.144 0.34,0 0.619,-0.049 0.833,-0.144 0.215,-0.095 0.405,-0.287 0.568,-0.573 h 0.021 c 0.02,0.096 0.043,0.192 0.066,0.292 0.024,0.1 0.06,0.192 0.108,0.281 h 1.35 c -0.069,-0.164 -0.115,-0.316 -0.138,-0.46 -0.024,-0.144 -0.036,-0.345 -0.036,-0.604 v -2.896 c 0,-0.246 -0.026,-0.473 -0.077,-0.68 C 34.601,81.53 34.504,81.351 34.361,81.2 34.218,81.05 34.015,80.933 33.752,80.853 33.489,80.771 33.151,80.73 32.734,80.73 c -0.266,0 -0.516,0.028 -0.752,0.087 -0.235,0.058 -0.44,0.152 -0.614,0.286 -0.173,0.133 -0.312,0.309 -0.414,0.526 -0.102,0.217 -0.153,0.484 -0.153,0.798 v 0.134 z m -6.953,3.815 h 2.486 c 0.429,0 0.79,-0.058 1.079,-0.174 0.29,-0.116 0.525,-0.271 0.706,-0.466 0.181,-0.194 0.309,-0.421 0.384,-0.681 0.074,-0.259 0.112,-0.531 0.112,-0.817 0,-0.491 -0.12,-0.883 -0.358,-1.177 -0.238,-0.293 -0.563,-0.468 -0.972,-0.521 v -0.02 c 0.368,-0.103 0.645,-0.294 0.829,-0.578 0.184,-0.283 0.276,-0.622 0.276,-1.019 0,-0.348 -0.051,-0.641 -0.153,-0.88 -0.103,-0.238 -0.246,-0.429 -0.43,-0.572 -0.184,-0.144 -0.404,-0.245 -0.66,-0.307 -0.256,-0.062 -0.534,-0.092 -0.834,-0.092 h -2.465 z m 1.473,-6.22 h 0.532 c 0.368,0 0.637,0.072 0.808,0.215 0.171,0.143 0.256,0.389 0.256,0.736 0,0.347 -0.094,0.596 -0.281,0.741 -0.188,0.146 -0.486,0.221 -0.896,0.221 h -0.419 z m 0,2.936 h 0.634 c 0.164,0 0.314,0.018 0.45,0.052 0.136,0.033 0.254,0.094 0.353,0.179 0.1,0.085 0.177,0.198 0.236,0.338 0.058,0.14 0.087,0.315 0.087,0.527 0,0.422 -0.11,0.713 -0.328,0.868 -0.218,0.157 -0.504,0.235 -0.859,0.235 h -0.573 z"
   id="path10" />
		<path
   clip-path="url(#SVGID_10_)"
   fill="#00549f"
   d="M 69.588,74.776 H 71 v -3.304 c 0,-0.184 0.03,-0.34 0.092,-0.466 0.061,-0.126 0.143,-0.229 0.245,-0.308 0.103,-0.077 0.215,-0.135 0.338,-0.168 0.123,-0.033 0.245,-0.052 0.368,-0.052 0.076,0 0.149,0.002 0.22,0.005 0.072,0.004 0.145,0.01 0.22,0.017 V 69.148 C 72.442,69.141 72.4,69.136 72.355,69.133 72.311,69.13 72.268,69.128 72.227,69.128 c -0.292,0 -0.542,0.08 -0.746,0.24 -0.205,0.16 -0.379,0.374 -0.522,0.64 h -0.021 v -0.737 h -1.35 z m -4.542,-6.291 h 1.146 v -1.207 h -1.146 z m 1.759,0 h 1.146 v -1.207 h -1.146 z m 0.43,6.291 h 1.35 v -5.504 h -1.411 v 3.652 c 0,0.606 -0.249,0.911 -0.747,0.911 -0.211,0 -0.364,-0.057 -0.46,-0.169 -0.096,-0.112 -0.144,-0.313 -0.144,-0.599 v -3.796 h -1.411 v 4.082 c 0,0.552 0.121,0.951 0.363,1.197 0.242,0.245 0.588,0.368 1.038,0.368 0.307,0 0.58,-0.063 0.819,-0.189 0.239,-0.126 0.433,-0.325 0.583,-0.599 h 0.02 z m -5.658,0 h 1.412 v -4.542 h 0.818 v -0.962 h -0.818 v -0.48 c 0,-0.156 0.041,-0.27 0.122,-0.337 0.082,-0.069 0.222,-0.103 0.42,-0.103 h 0.133 c 0.061,0 0.109,0.003 0.143,0.01 v -1.003 c -0.259,-0.02 -0.511,-0.029 -0.757,-0.029 -0.225,0 -0.43,0.021 -0.614,0.065 -0.184,0.044 -0.338,0.118 -0.465,0.22 -0.126,0.103 -0.223,0.238 -0.292,0.409 -0.067,0.171 -0.102,0.379 -0.102,0.624 v 0.624 h -0.716 v 0.962 h 0.716 z m -5.482,-5.504 h -0.717 v 0.962 h 0.717 v 3.151 c 0,0.279 0.016,0.511 0.051,0.695 0.034,0.184 0.097,0.333 0.189,0.444 0.092,0.113 0.223,0.193 0.394,0.241 0.17,0.048 0.395,0.071 0.675,0.071 0.164,0 0.318,-0.007 0.466,-0.021 0.146,-0.013 0.297,-0.027 0.455,-0.041 v -0.981 c -0.048,0.007 -0.099,0.012 -0.154,0.015 -0.055,0.003 -0.109,0.005 -0.163,0.005 -0.205,0 -0.34,-0.046 -0.404,-0.138 -0.066,-0.092 -0.098,-0.247 -0.098,-0.465 v -2.978 h 0.819 V 69.27 h -0.819 v -1.575 h -1.411 z m -4.74,-0.787 h 1.146 v -1.207 h -1.146 z m 1.76,0 h 1.146 v -1.207 h -1.146 z m 0.266,4.624 c 0,0.156 -0.028,0.288 -0.082,0.394 -0.056,0.105 -0.125,0.192 -0.21,0.261 -0.086,0.069 -0.179,0.118 -0.281,0.149 -0.103,0.029 -0.202,0.046 -0.297,0.046 -0.191,0 -0.327,-0.075 -0.409,-0.226 -0.082,-0.15 -0.123,-0.331 -0.123,-0.543 0,-0.245 0.061,-0.439 0.184,-0.583 0.123,-0.143 0.328,-0.245 0.614,-0.307 0.088,-0.021 0.187,-0.053 0.297,-0.097 0.108,-0.044 0.21,-0.104 0.307,-0.18 z m -1.31,-2.148 v -0.153 c 0,-0.218 0.054,-0.392 0.164,-0.521 0.108,-0.131 0.272,-0.194 0.491,-0.194 0.238,0 0.407,0.059 0.506,0.179 0.098,0.119 0.149,0.284 0.149,0.496 0,0.185 -0.041,0.324 -0.123,0.419 -0.082,0.095 -0.229,0.171 -0.44,0.226 l -0.798,0.215 c -0.246,0.068 -0.455,0.146 -0.629,0.234 -0.174,0.089 -0.317,0.2 -0.43,0.333 -0.112,0.134 -0.196,0.294 -0.25,0.481 -0.056,0.187 -0.082,0.411 -0.082,0.67 0,0.184 0.023,0.37 0.071,0.557 0.047,0.188 0.123,0.356 0.225,0.508 0.103,0.149 0.239,0.272 0.41,0.367 0.169,0.096 0.378,0.144 0.624,0.144 0.34,0 0.619,-0.048 0.833,-0.144 0.215,-0.095 0.404,-0.286 0.568,-0.572 h 0.021 c 0.02,0.095 0.042,0.191 0.066,0.292 0.024,0.099 0.059,0.191 0.107,0.28 h 1.351 c -0.069,-0.164 -0.115,-0.316 -0.138,-0.46 -0.025,-0.144 -0.036,-0.345 -0.036,-0.604 v -2.896 c 0,-0.246 -0.026,-0.473 -0.077,-0.68 -0.051,-0.208 -0.148,-0.387 -0.291,-0.537 -0.144,-0.151 -0.347,-0.266 -0.609,-0.348 -0.263,-0.082 -0.603,-0.123 -1.018,-0.123 -0.266,0 -0.517,0.029 -0.752,0.087 -0.235,0.058 -0.44,0.153 -0.614,0.286 -0.174,0.133 -0.312,0.309 -0.414,0.526 -0.102,0.219 -0.153,0.484 -0.153,0.799 v 0.133 z m -4.172,-1.689 h -0.716 v 0.962 h 0.716 v 3.151 c 0,0.279 0.017,0.511 0.051,0.695 0.034,0.184 0.098,0.333 0.19,0.444 0.092,0.113 0.223,0.193 0.394,0.241 0.169,0.048 0.394,0.071 0.675,0.071 0.163,0 0.318,-0.007 0.465,-0.021 0.147,-0.013 0.298,-0.027 0.455,-0.041 v -0.981 c -0.048,0.007 -0.099,0.012 -0.153,0.015 -0.055,0.003 -0.109,0.005 -0.164,0.005 -0.204,0 -0.339,-0.046 -0.404,-0.138 -0.065,-0.092 -0.097,-0.247 -0.097,-0.465 v -2.978 h 0.818 V 69.27 h -0.818 v -1.575 h -1.412 z m -2.784,5.504 h 1.412 v -7.304 h -1.412 z m -2.379,0 h 1.351 v -5.504 h -1.412 v 3.652 c 0,0.606 -0.25,0.911 -0.747,0.911 -0.212,0 -0.365,-0.057 -0.46,-0.169 -0.096,-0.112 -0.144,-0.313 -0.144,-0.599 v -3.796 h -1.411 v 4.082 c 0,0.552 0.12,0.951 0.363,1.197 0.241,0.245 0.588,0.368 1.038,0.368 0.307,0 0.579,-0.063 0.819,-0.189 0.238,-0.126 0.432,-0.325 0.583,-0.599 h 0.02 z m -7.927,-7.303 v 7.304 h 1.412 v -1.605 l 0.501,-0.655 1.176,2.261 h 1.555 l -1.821,-3.335 1.586,-2.169 h -1.555 l -1.422,2.057 h -0.02 v -3.856 h -1.412 z m -2.406,5.636 c 0,0.156 -0.028,0.288 -0.082,0.394 -0.054,0.106 -0.125,0.192 -0.21,0.261 -0.085,0.069 -0.179,0.118 -0.281,0.149 -0.102,0.029 -0.202,0.046 -0.297,0.046 -0.191,0 -0.327,-0.075 -0.409,-0.226 -0.082,-0.151 -0.123,-0.331 -0.123,-0.543 0,-0.245 0.062,-0.439 0.184,-0.583 0.123,-0.143 0.328,-0.245 0.614,-0.307 0.089,-0.021 0.187,-0.053 0.297,-0.097 0.109,-0.044 0.212,-0.104 0.307,-0.18 z m -1.31,-2.148 v -0.153 c 0,-0.218 0.055,-0.392 0.164,-0.521 0.11,-0.131 0.273,-0.194 0.491,-0.194 0.238,0 0.407,0.059 0.507,0.179 0.099,0.119 0.148,0.284 0.148,0.496 0,0.185 -0.041,0.324 -0.123,0.419 -0.082,0.095 -0.228,0.171 -0.44,0.226 l -0.798,0.215 c -0.245,0.068 -0.455,0.146 -0.629,0.234 -0.174,0.089 -0.317,0.2 -0.43,0.333 -0.112,0.134 -0.196,0.294 -0.25,0.481 -0.054,0.187 -0.082,0.411 -0.082,0.67 0,0.184 0.024,0.37 0.072,0.557 0.048,0.188 0.122,0.356 0.225,0.508 0.102,0.149 0.238,0.272 0.409,0.367 0.171,0.096 0.378,0.144 0.624,0.144 0.341,0 0.619,-0.048 0.834,-0.144 0.214,-0.095 0.404,-0.286 0.567,-0.572 h 0.021 c 0.02,0.095 0.043,0.191 0.066,0.292 0.024,0.099 0.06,0.191 0.108,0.28 h 1.35 c -0.068,-0.164 -0.114,-0.316 -0.138,-0.46 -0.023,-0.144 -0.036,-0.345 -0.036,-0.604 v -2.896 c 0,-0.246 -0.025,-0.473 -0.076,-0.68 -0.052,-0.208 -0.149,-0.387 -0.292,-0.537 -0.143,-0.151 -0.346,-0.266 -0.609,-0.348 -0.263,-0.082 -0.601,-0.123 -1.018,-0.123 -0.266,0 -0.516,0.029 -0.752,0.087 -0.235,0.058 -0.439,0.153 -0.613,0.286 -0.174,0.133 -0.312,0.309 -0.415,0.526 -0.102,0.219 -0.153,0.484 -0.153,0.799 v 0.133 z m -5.977,3.815 h 1.473 v -3.171 h 2.455 V 70.398 H 26.589 V 68.68 h 2.609 v -1.207 h -4.082 z"
   id="path11" />
	</g>
</g>
</svg>
